<?xml version="1.0" encoding="UTF-8"?>
<!DOCTYPE svg PUBLIC "-//W3C//DTD SVG 1.1//EN" "http://www.w3.org/Graphics/SVG/1.1/DTD/svg11.dtd">
<!-- Creator: CorelDRAW 2021.5 -->
<svg xmlns="http://www.w3.org/2000/svg" xml:space="preserve" width="49.277mm" height="24.827mm" version="1.1" style="shape-rendering:geometricPrecision; text-rendering:geometricPrecision; image-rendering:optimizeQuality; fill-rule:evenodd; clip-rule:evenodd"
viewBox="0 0 4624.22 2329.8"
 xmlns:xlink="http://www.w3.org/1999/xlink"
 xmlns:xodm="http://www.corel.com/coreldraw/odm/2003">
 <defs>
  <style type="text/css">
   <![CDATA[
    .fil2 {fill:#E60C80}
    .fil1 {fill:#FF5779}
    .fil0 {fill:white;fill-rule:nonzero}
   ]]>
  </style>
 </defs>
 <g id="Layer_x0020_1">
  <metadata id="CorelCorpID_0Corel-Layer"/>
  <g id="_105553229347584">
   <path class="fil0" d="M166.76 1986.36l-166.76 0 0 -1548.42 71.47 0 59.55 154.84c76.24,-126.25 181.05,-190.57 316.84,-190.57 233.45,0 350.18,111.96 350.18,333.5l0 1250.65 -166.76 0 0 -1250.65c0,-59.55 -11.91,-107.19 -38.11,-140.55 -26.21,-33.35 -76.24,-50.03 -145.31,-50.03 -69.09,0 -133.4,26.2 -192.96,80.99 -59.56,54.79 -88.15,107.19 -88.15,157.22l0 1203.01z"/>
   <path id="_1" class="fil0" d="M1834.29 1688.58l0 -131.02 166.76 0 0 131.02c0,107.2 -33.35,188.2 -97.67,245.37 -64.32,59.56 -161.99,88.15 -293.01,88.15 -131.02,0 -228.69,-28.58 -295.39,-88.15 -66.7,-57.17 -100.04,-138.16 -100.04,-245.37l0 -952.87c0,-107.19 33.34,-188.19 97.66,-247.75 64.33,-57.17 161.99,-85.75 293.01,-85.75 131.02,0 228.69,28.58 295.39,85.75 66.7,59.56 100.05,140.56 100.05,247.75l0 524.08 -619.37 0 0 428.79c0,126.26 76.24,190.58 226.31,190.58 150.08,0 226.31,-64.32 226.31,-190.58zm-452.62 -952.87l0 381.16 452.62 0 0 -381.16c0,-126.25 -76.23,-190.57 -226.31,-190.57 -150.07,0 -226.31,64.32 -226.31,190.57z"/>
   <path class="fil0" d="M4028.67 435.94l524.08 0 0 142.93 -357.33 0 0 1141.06c0,45.27 11.91,80.99 35.73,111.96 21.44,30.97 54.79,45.27 97.67,45.27 40.49,0 73.84,-14.3 95.29,-45.27 21.44,-28.58 33.35,-66.69 33.35,-111.96l0 -283.48 166.76 0 0 273.95c0,100.05 -26.21,176.28 -78.61,228.69 -54.79,54.78 -126.26,80.99 -216.78,80.99 -90.52,0 -161.99,-26.21 -216.78,-80.99 -54.78,-52.41 -83.37,-128.64 -83.37,-228.69l0 -1274.47z"/>
   <polygon class="fil0" points="2446.23,2251.53 2446.23,1999.86 2486.82,1999.86 2486.82,2228.3 2592.98,2228.3 2592.98,2251.53 "/>
   <path id="_1_0" class="fil0" d="M2804.68 2203.14l0 -21.3 40.6 0 0 21.3c0,17.42 -8.13,30.58 -23.79,39.87 -15.65,9.68 -39.43,14.33 -71.34,14.33 -31.9,0 -55.69,-4.65 -71.92,-14.33 -16.23,-9.29 -24.36,-22.46 -24.36,-39.87l0 -154.88c0,-17.43 8.13,-30.59 23.79,-40.28 15.66,-9.29 39.43,-13.94 71.34,-13.94 31.9,0 55.69,4.65 71.92,13.94 16.23,9.68 24.36,22.85 24.36,40.28l0 85.18 -150.81 0 0 69.7c0,20.51 18.57,30.97 55.11,30.97 36.53,0 55.1,-10.45 55.1,-30.97zm-110.22 -154.88l0 61.94 110.22 0 0 -61.94c0,-20.52 -18.57,-30.98 -55.1,-30.98 -36.54,0 -55.11,10.45 -55.11,30.98z"/>
   <polygon id="_2" class="fil0" points="3063.94,2251.53 3003.04,2251.53 2917.77,1999.86 2958.38,1999.86 3033.19,2221.72 3108.61,1999.86 3149.2,1999.86 "/>
   <path id="_3" class="fil0" d="M3372.52 2203.14l0 -21.3 40.6 0 0 21.3c0,17.42 -8.12,30.58 -23.78,39.87 -15.66,9.68 -39.43,14.33 -71.35,14.33 -31.9,0 -55.68,-4.65 -71.91,-14.33 -16.24,-9.29 -24.36,-22.46 -24.36,-39.87l0 -154.88c0,-17.43 8.12,-30.59 23.78,-40.28 15.66,-9.29 39.43,-13.94 71.35,-13.94 31.9,0 55.68,4.65 71.91,13.94 16.24,9.68 24.36,22.85 24.36,40.28l0 85.18 -150.8 0 0 69.7c0,20.51 18.57,30.97 55.1,30.97 36.53,0 55.1,-10.45 55.1,-30.97zm-110.21 -154.88l0 61.94 110.21 0 0 -61.94c0,-20.52 -18.57,-30.98 -55.1,-30.98 -36.53,0 -55.1,10.45 -55.1,30.98z"/>
   <polygon id="_4" class="fil0" points="3520.42,2251.53 3520.42,1999.86 3561.01,1999.86 3561.01,2228.3 3667.16,2228.3 3667.16,2251.53 "/>
   <g>
    <path class="fil1" d="M3297.87 541.01c8.3,-25.04 147.42,-149.37 176.26,-184.73 24.71,-30.29 10.95,-24.22 55.67,-65.65 12.72,-11.79 46.37,-34.84 52.65,-47.28 6.65,-13.17 20.08,-22.52 24.66,-37.59 -36.69,4.39 -150.38,106.98 -181.26,112.31 10.63,-13.44 88.36,-66.15 90.29,-76.61 -34.06,6.57 -166.29,123.77 -200.44,157.15 -11.57,11.3 -26.5,24.74 -35.17,36.34 -5.41,7.24 -15.95,29.17 -21.81,32.42 -5.3,2.97 -4.38,-1.26 -9.6,7.54 -8.76,14.77 -16.1,34.79 -32.91,42.6 1.05,-10.5 2.3,-6.84 4.76,-14.67 6.08,-19.35 -9.91,-2.34 19.45,-34.36 10.29,-11.22 28.22,-31.53 29.57,-50.52 -8.6,3.2 -10.55,7.1 -18.22,12.28 -6.23,4.2 -10.98,7.13 -15.95,11.89 8.75,0.78 12.69,-3.44 20.9,-4.67 -0.72,15.34 -87.71,107.8 -98.71,119.55 -51.26,54.81 -163.81,173.98 -204.69,234.68 -16.59,24.65 -26.74,47.16 -12.46,84.56 4.85,12.69 26.86,77.01 23.67,82.54 -22,-41.83 -59.32,-172.28 -82.27,-232.64 -14.79,-38.89 -24.58,-85.79 -32.81,-126.51 -4.46,-22.03 -8.88,-43.96 -14.55,-64.69 -2.68,-9.77 -6.29,-20.62 -10.02,-29.46 -6.58,-15.56 -0.72,-25.79 -5.47,-34.45 -8.72,4.28 -3.48,6.93 -4.31,22.73 -0.36,6.87 2.27,11.83 1.09,18.81 -1.51,8.85 0.02,3.27 -2.96,6.92 -4.27,-18.3 -10.83,-32.43 -14.7,-49.29 -3,-13.1 -8.07,-41.07 -18.89,-46.83 -6.6,3.04 -7.21,6.2 -9.57,12.47 -6.48,-1.06 -4.01,-1.18 -9.55,-2.05 -1.22,3.17 -2.79,8 -5.23,10.95 -4.25,5.15 -1.62,1.71 -3.63,2.5 -0.27,0.1 -0.86,0.21 -1.15,0.29l-5.43 1.5c-4.89,71.49 10.63,129.74 25.98,193.44 6.62,27.45 16.88,64.05 19.63,90.84 4.98,48.53 20.54,71.49 20.32,91.04 -13.66,-6.43 -46.75,-136.41 -48.48,-145.59 -5.25,-27.92 -10.76,-53.33 -15.86,-81.46 -3.32,-18.31 0.17,-82.41 -13.88,-89.77 -6.38,-3.34 -4.84,0.39 -10.05,-5.56 -4.19,-4.78 -3.54,-6.52 -8.59,-11.23 2.16,25.74 3.43,8.35 3.36,47.77 -0.05,27.5 4.87,75.33 8.15,103.54 3.58,30.86 10.44,58.4 14.06,89.06 2.13,17.98 8.5,23.17 12.75,39.41 3.96,15.15 2.14,27.91 7.9,43.71 5.08,13.94 10.29,22.87 14.73,37.19 3.18,10.24 0.57,16.19 5.16,22.21 0.41,0.53 3.56,4.51 3.58,4.53 3.7,5.12 4.67,-1.23 3.62,10.23 -15.89,-4.12 -15.17,-10.55 -26.72,-42.44 -32.85,-90.77 -53.86,-186.38 -64.91,-282.66 -1.54,-13.35 -1.34,-17.21 -4.84,-29.55 -4.8,-16.93 -0.77,-83.5 -16.71,-88.03 -17.58,-5 -43.81,77.42 -48,96.35 -3.89,17.57 -1.13,121.29 0.75,139.06l3.52 89.85 -9.19 -24.62c-3.69,8.03 23.81,132.44 29.33,157.77 1.45,6.63 5.94,8.58 5.13,15.56l-0.84 2.77c-0.08,0.28 -0.32,0.91 -0.58,1.3 -6.9,-12.74 -7.21,-28.7 -15.41,-41.99 -5.42,-8.77 4.56,6.36 -2.81,-3.33 -4.57,-6 -1.47,-5.92 -3.25,-12.13 -7.75,-27.19 -33.68,-156.49 -37.35,-188.66 -2.21,-19.49 -3.77,-85.7 -8.78,-96.36 -10.05,4.36 -7.07,25.31 -6.99,34.77l5.04 117.34c3.43,21.41 10.72,47.92 9.99,69.58 -1.08,32.45 7.39,6.26 3.98,32.11 -2.06,15.62 6.74,15.98 4.96,34.72 -10.5,-5.38 -9.27,-35.11 -11.37,-47.92 -7.98,-48.67 -15.53,-100.23 -19.21,-150.23l-4.3 -12.94 -4.96 48.78c-0.15,55.78 8.12,145.5 28.23,197.08 5.01,12.85 4.81,24.18 8.65,37.54 11.93,41.43 57.3,172.47 70.75,201.66 8.9,19.31 58.61,107.03 59.87,120.06 -7.49,-5.78 -13.44,-14.86 -20.34,-24.6 -7.28,-10.25 -11.46,-21.37 -25.58,-22.02l-2.7 -12.85c-1.63,-3.46 -0.78,-1.91 -2.57,-3.89 -52.01,59.99 -143.4,241.03 -174.65,310.69 -11.25,25.09 -35.57,57.1 -40.15,81.19 -6.12,32.16 -54.33,115.08 -59.24,135.97 -2.51,10.67 0.47,4.62 0.08,12.64 -0.21,4.04 -5.4,17.22 -7.62,22.93 -5.65,14.55 -33.75,78.71 -33.64,87.84 35.79,-55.39 91.73,-178.41 128.66,-245.28 14.57,-26.38 28.75,-57.83 45.41,-82.12 4.29,5.85 -5.24,20.09 -8.24,25.9 -31.76,61.63 -63.48,121.97 -93.18,185.38 -17.82,38.06 -35.14,70.75 -52.29,106.69 -8.88,18.62 -51.88,89.05 -53.21,105.94 18.41,-8.88 46.2,-57.6 61.16,-76.47 6.54,-8.26 16.11,-17.21 19.1,-28.9 11.66,-45.64 98.51,-211.96 120.47,-249.05 13.83,-23.36 55.9,-109.54 67.72,-119.06 -4.31,63.92 -161.39,269.26 -163.27,356.29 45.78,2.49 89.06,-106.46 108.56,-122.63 4.63,-3.84 17.21,-13.79 14,-21.71 -3.6,-8.91 2.53,-13.55 7.34,-22.89 4.3,-8.35 9.38,-18.29 14.5,-26.98 5.17,-8.8 30.13,-43.79 37.36,-47.31 -6.22,31.89 -78.68,133.18 -80.86,168.37 4.79,-2.8 1.31,-0.05 5.41,-4.13 2.56,-2.54 2.43,-2.97 4.32,-5.71l21.71 -31.9c5.58,-8.73 21.04,-39.75 27.07,-45.03 5.93,3.58 3.18,1.1 6.34,7.82 2.91,6.18 1.34,5.27 5.58,10.08 6.66,-5.12 24.23,-39.52 31.18,-49.95 5.4,-8.1 10.05,-15.24 16.07,-23.64 10.37,-14.48 9.14,-16.53 23.06,-16.29 -2.63,10.28 -7.7,12.72 -9.2,23.44 18.85,-10.92 103.19,-146.41 115.11,-166.17 8.23,-13.64 26.16,-47.46 48.44,-44.36 28.62,29.4 -3.29,62.15 -19.6,84.91 -20.22,28.19 -38.63,42.3 -51.12,78.16 -22.48,2.84 -13.55,8.04 -20.51,23.45 -6.61,14.6 -13.67,2.74 -16.6,28.8 -33.35,15.7 -15.64,15.59 -27.6,36.2 -4.71,8.12 -20.98,32.23 -22.2,42.28 10,-6.28 16.52,-19.35 23.5,-29.15 36.53,-51.31 73.85,-103.1 113.75,-152.6 7.65,-9.5 16.42,-20.52 23.62,-30.19 8.81,-11.81 17.04,-19.76 23.71,-29.76 16.81,6.19 103.04,108.5 115.13,123.15 48.25,58.4 125.16,121.87 184.6,171.24 4.49,3.73 10.84,9.9 17.08,13.02 35.17,17.54 48.31,41.79 68.37,50.81 24.27,10.92 12.86,-8.89 61.6,27.67 17.74,13.3 30.57,27.83 48,41.37 5.37,4.18 11.96,8.2 16.38,12.26 -0.31,-20.76 -100.61,-117.99 -116.52,-134.71 -28.73,-30.19 -61.86,-64.04 -94.77,-94.2 -6.87,-6.29 -9.07,-8.98 -16.27,-15.36 -5.89,-5.21 -14.96,-7.27 -10.37,-17.57 14.06,4.49 149.83,139.99 169.27,158.81 20.27,19.61 84.2,88.49 100.74,95.08 -3.04,-17.51 -79.33,-82.83 -82.43,-97.91 33.4,26.84 70.03,60.66 101.93,91.34 13.27,12.76 87.96,87.23 104.36,91.09 -6.32,-11.16 -52.46,-48.58 -63.46,-58.05 0.13,-0.44 0.6,-1.51 0.67,-1.21l1.36 -3.46c0.44,-5.29 -1.26,-4.18 -12.31,-13.33 -35.25,-29.16 -19,-22.57 -29.13,-38.43 -4.82,-7.54 -11.4,-15.28 -6.99,-25.35 8.23,0.95 9.71,4.73 15.7,10.74 7.21,7.23 35.56,36.43 42.25,36.49l8.95 -5.21c-13.9,-19.92 -127.9,-143.04 -145.41,-161.73 -14.79,-15.77 -141.25,-154.92 -143.96,-164.36l160.95 155.3c5.45,5.93 5.6,7.84 14.86,8.58 9.55,-23.29 -13.68,-47.32 -25.51,-65.66 10.78,0.98 5.65,8.55 18.41,7.03 10.39,-28.85 -73.72,-134.05 -89.93,-154.02 -18.89,-23.27 -36.66,-46.3 -54.7,-70.61 -31.86,-42.93 -123.13,-185.34 -144.15,-231.64 -9.58,-21.1 -4.19,-27.56 6.26,-45.14 8.72,-14.66 16.01,-24.14 25.77,-37.79 39.14,-54.71 175.39,-207.6 230.25,-270.87 20.07,-23.14 37.22,-41.38 58.81,-66.34 17.66,-20.4 221.26,-243.82 219.99,-280.08 -14.1,0.49 -43.21,31.55 -53.3,41.19 -16.73,15.97 -33.07,29.92 -49.8,47.55 -31.92,33.63 -62.53,63.14 -94.33,98.52 -18.38,20.45 -169.34,190.17 -176.72,211.05 7.66,-2.91 7.06,-4.26 12.88,-11.05l72.31 -82.8c68.78,-77.82 138.92,-156.87 211.87,-233.32 6.38,-6.69 15.21,-16.24 21.44,-22.37 8.79,-8.64 14.21,-16.97 25.06,-21.98 -5.54,22.49 -113.41,140.57 -130.61,159.12 -46.12,49.72 -88.86,99.67 -134.9,153.15 -44.87,52.13 -83.83,103.44 -131.16,157.15 -39.6,44.95 -74.82,91.03 -116.56,134.04l-10.67 11.46c-2.67,4.19 -1.89,6.17 -7.39,8.03 0.94,-6.93 3.43,-7.84 6.7,-13.95l-3.43 -1.77c-6.18,-2.5 -9.24,-2.69 -12.55,-9.2 -3.12,-6.14 -4.06,-12.49 -6.88,-18.85 5.94,-5.08 8.96,-11.52 13.21,-18.58l39.54 -57.83c21.44,-28.99 37.52,-48.67 60.04,-71.02 8.97,4.78 1.11,2.38 8.47,6.31 5.98,-22.53 6.75,-21.52 26.27,-33.57l10.72 -4.22c-1.31,-4.09 -3.84,-4.12 -5.4,-9.95 31.13,-39.5 66.39,-79.57 98.33,-114.69 65.53,-72.07 139.21,-155.17 205.63,-223.71 42.26,-43.61 37.61,-42.67 87.02,-74.16 22.17,-14.13 12.79,-15.06 11.13,-34.75 1.4,-0.66 3.79,-1.48 3.89,-1.53 4.34,-2.14 1.32,-0.32 4.34,-2.44 0.16,-10.57 -2.51,-23.28 2.62,-30.62 8.25,1.67 6.13,10.09 10.78,18.19 18.13,-0.82 46.7,-50.43 53.67,-67.23 0.99,-2.39 1.53,-2.8 1.82,-6.12 0.43,-4.95 0.45,1.5 -0.05,-3.31 -0.65,-6.2 -1.93,-6.22 -7.45,-6.06 -2.44,0.08 -4.62,0.78 -7.69,2.03 -4.8,1.94 -8.57,4.39 -13.11,7.12 -88.76,53.2 -150.65,133.14 -218.38,208.91l-76.24 82.62c3.75,-18.56 96.38,-127.19 112.55,-145.58 16.56,-18.82 64.55,-73.14 87.26,-89.75 7.3,-5.34 5.56,-1.76 11.08,-4.78 10.74,-5.86 14.91,-38.76 28.45,-43.6 35.32,-12.62 23.57,-3.49 40.9,-48.27 3.99,-10.32 23.11,-51.58 18.17,-63.21l-6.05 -7.16c10.67,-14.08 96.36,-97.87 97.28,-110.11 -2.82,2.9 -52.42,32.33 -61.1,38.16 -119.64,80.3 -223.91,185.56 -325.69,286.53 -10.49,10.41 -43.43,47.81 -52.17,52.34z"/>
    <path class="fil1" d="M2175.82 1993.08l42.84 0.28c3.62,-16.1 1.14,-233.94 1.14,-269.95l0 -1357.84c0,-100.71 -8.81,-160.17 41.75,-229.88 37.06,-51.09 99.76,-90.08 182.1,-90.08l1168.97 0c89.15,0 146.26,37.38 184.19,86.08 52.16,66.97 44.72,126.61 44.72,227.91l0 1497c0,37.97 -3.75,101.2 0.68,136.17l45.45 0.41c2.13,-94.09 0.09,-190.03 0.09,-283.7l0 -1421.46c0,-11.28 0.03,-22.54 -0.1,-33.83 -0.27,-23.27 -10.98,-68.14 -18.87,-87.26 -43.09,-104.52 -133.79,-166.93 -260.13,-166.93l-1161.02 0c-44.48,0 -84.13,7.19 -117.63,23.36 -31.84,15.36 -62.82,36.04 -82.62,58.43 -61.28,69.34 -72.52,120.56 -72.52,212.2 0,70.72 -2.65,1678.55 0.97,1699.08z"/>
    <path class="fil1" d="M3870.92 2151.15l-45.57 -0.18c-7.19,10.23 -13.06,25.15 -20.9,36.6 -44.81,65.49 -109.65,96.68 -191.82,96.58l-1159.03 -0.01c-46.14,0.04 -62.82,-3.78 -100.55,-17.02 -34.55,-12.11 -72.94,-46.37 -94.85,-78.02 -8.87,-12.82 -13.96,-24.82 -21.55,-37.83l-46.86 -0.22c0.11,19.34 33.38,69.53 44.57,81.85 89.51,98.52 149.99,96.89 284.85,96.89l1019.87 0c132.15,0 197.84,2.32 286.78,-94.9 10.86,-11.86 46.31,-64.24 45.07,-83.74z"/>
    <path class="fil2" d="M3064.35 615.7l7.49 -5.9 2.68 3.93c2.8,3.94 -0.86,1.36 2.6,3.38 4.45,-5.63 4.71,-6.65 8.48,-13.19 6.81,-11.81 4.26,-0.23 11.52,-12.27 6.93,-11.49 8.47,-17.83 18.17,-27.6 5.28,-5.32 7.24,-4.81 12.13,-9.74 7.64,-7.69 15.18,-18.21 33.43,-36.12 8.42,-8.26 13.77,-15.34 22.76,-23.08 8.91,-7.66 5.25,-5.77 7.23,-12.06 2.46,-7.78 46.28,-52.05 49.74,-63.43 -20.95,15.19 -75.65,70.18 -94.52,91.67 -13.94,15.89 -78.57,89.63 -81.71,104.42z"/>
   </g>
  </g>
 </g>
</svg>
